<svg version="1.1" baseProfile="full" width="765.25" height="623" viewbox="0 0 765.25 623" xmlns="http://www.w3.org/2000/svg" xmlns:xlink="http://www.w3.org/1999/xlink" xmlns:ev="http://www.w3.org/2001/xml-events" style="font-weight:italic bold; font-size:12pt; font-family:'Calibri', Helvetica, sans-serif;;stroke-linejoin:round;stroke-linecap:round">
  <title >nomnoml</title>
  <desc >[Pirate|eyeCount: Int|raid();pillage()|
  [beard]--[parrot]
  [beard]-:&gt;[foul mouth]
]

[&lt;table&gt;mischief | bawl | sing || yell | drink]

[&lt;abstract&gt;Marauder]&lt;:--[Pirate]
[Pirate]- 0..7[mischief]
[jollyness]-&gt;[Pirate]
[jollyness]-&gt;[rum]
[jollyness]-&gt;[singing]
[Pirate]-&gt; *[rum|tastiness: Int|swig()]
[Pirate]-&gt;[singing]
[singing]&lt;-&gt;[rum]

[&lt;start&gt;st]-&gt;[&lt;state&gt;plunder]
[plunder]-&gt;[&lt;choice&gt;more loot]
[more loot]-&gt;[st]
[more loot] no -&gt;[&lt;end&gt;e]

[&lt;actor&gt;Sailor] - [&lt;usecase&gt;shiver me;timbers]</desc>
  <rect x="0" y="0" height="623" width="765.25" style="stroke:none; fill:transparent;"></rect>
  <path d="M129.6 56.5 L129.6 88.5 L135.4 108.5 L135.4 108.5 " style="stroke:#33322E;fill:none;stroke-dasharray:6 6;stroke-width:3;"></path>
  <path d="M135 69.8 L129.6 69.8 L124.3 69.8 L129.6 56.5 Z" style="stroke:#33322E;fill:#eee8d5;stroke-dasharray:none;stroke-width:3;"></path>
  <text x="31.5" y="376.5" style="fill: #33322E;font-weight:normal;">0..7</text>
  <path d="M90.9 344.5 L77.5 364.5 L77.5 384.5 L77.5 384.5 " style="stroke:#33322E;fill:none;stroke-dasharray:none;stroke-width:3;"></path>
  <path d="M312.7 56.5 L243 88.5 L232.4 108.5 L232.4 108.5 " style="stroke:#33322E;fill:none;stroke-dasharray:none;stroke-width:3;"></path>
  <path d="M233.9 94.2 L235.5 102.6 L243.3 99.2 L232.4 108.5 Z" style="stroke:#33322E;fill:#33322E;stroke-dasharray:none;stroke-width:3;"></path>
  <path d="M346.2 56.5 L345.5 88.5 L345.5 226.5 L345.5 226.5 L345.5 364.5 L345.5 364.5 L345.5 431 L345.5 431 L345.5 497.5 L345.5 497.5 L296.8 523.8 L296.8 523.8 " style="stroke:#33322E;fill:none;stroke-dasharray:none;stroke-width:3;"></path>
  <path d="M306 512.8 L302.6 520.6 L311 522.2 L296.8 523.8 Z" style="stroke:#33322E;fill:#33322E;stroke-dasharray:none;stroke-width:3;"></path>
  <path d="M359.2 56.5 L385.5 88.5 L385.5 226.5 L385.5 226.5 L385.5 364.5 L385.5 364.5 L291.6 415.5 L291.6 415.5 " style="stroke:#33322E;fill:none;stroke-dasharray:none;stroke-width:3;"></path>
  <path d="M300.7 404.5 L297.4 412.3 L305.8 413.8 L291.6 415.5 Z" style="stroke:#33322E;fill:#33322E;stroke-dasharray:none;stroke-width:3;"></path>
  <text x="201.8" y="509.5" style="fill: #33322E;font-weight:normal;">*</text>
  <path d="M179.8 344.5 L181.5 364.5 L181.5 431 L181.5 431 L181.5 497.5 L181.5 497.5 L193.8 517.5 L193.8 517.5 " style="stroke:#33322E;fill:none;stroke-dasharray:none;stroke-width:3;"></path>
  <path d="M182.2 508.9 L190.3 511.8 L191.3 503.3 L193.8 517.5 Z" style="stroke:#33322E;fill:#33322E;stroke-dasharray:none;stroke-width:3;"></path>
  <path d="M249.5 344.5 L263 364.5 L263 415.5 L263 415.5 " style="stroke:#33322E;fill:none;stroke-dasharray:none;stroke-width:3;"></path>
  <path d="M257.7 402.2 L263 408.8 L268.3 402.2 L263 415.5 Z" style="stroke:#33322E;fill:#33322E;stroke-dasharray:none;stroke-width:3;"></path>
  <path d="M263 446.5 L263 497.5 L250.7 517.5 L250.7 517.5 " style="stroke:#33322E;fill:none;stroke-dasharray:none;stroke-width:3;"></path>
  <path d="M253.2 503.3 L254.2 511.8 L262.3 508.9 L250.7 517.5 Z" style="stroke:#33322E;fill:#33322E;stroke-dasharray:none;stroke-width:3;"></path>
  <path d="M268.3 459.8 L263 453.2 L257.7 459.8 L263 446.5 Z" style="stroke:#33322E;fill:#33322E;stroke-dasharray:none;stroke-width:3;"></path>
  <path d="M663.4 56 L635.5 88.5 L635.5 211 L635.5 211 " style="stroke:#33322E;fill:none;stroke-dasharray:none;stroke-width:3;"></path>
  <path d="M630.2 197.7 L635.5 204.3 L640.8 197.7 L635.5 211 Z" style="stroke:#33322E;fill:#33322E;stroke-dasharray:none;stroke-width:3;"></path>
  <path d="M635.5 242 L635.5 364.5 L662 407.8 L662 407.8 " style="stroke:#33322E;fill:none;stroke-dasharray:none;stroke-width:3;"></path>
  <path d="M650.5 399.2 L658.5 402.1 L659.6 393.6 L662 407.8 Z" style="stroke:#33322E;fill:#33322E;stroke-dasharray:none;stroke-width:3;"></path>
  <path d="M690.5 407.8 L717 364.5 L717 226.5 L717 226.5 L717 88.5 L717 88.5 L689.1 56 L689.1 56 " style="stroke:#33322E;fill:none;stroke-dasharray:none;stroke-width:3;"></path>
  <path d="M701.8 62.6 L693.5 61.1 L693.8 69.6 L689.1 56 Z" style="stroke:#33322E;fill:#33322E;stroke-dasharray:none;stroke-width:3;"></path>
  <text x="684.3" y="474.3" style="fill: #33322E;font-weight:normal;">no</text>
  <path d="M676.3 454.3 L676.3 497.5 L676.3 549 L676.3 549 " style="stroke:#33322E;fill:none;stroke-dasharray:none;stroke-width:3;"></path>
  <path d="M670.9 535.7 L676.3 542.3 L681.6 535.7 L676.3 549 Z" style="stroke:#33322E;fill:#33322E;stroke-dasharray:none;stroke-width:3;"></path>
  <path d="M490.3 68.5 L490.3 88.5 L490.3 197.8 L490.3 197.8 " style="stroke:#33322E;fill:none;stroke-dasharray:none;stroke-width:3;"></path>
  <rect x="13.5" y="384.5" height="93" width="128" style="stroke:#33322E;fill:#eee8d5;stroke-dasharray:none;stroke-width:3;"></rect>
  <text x="77.5" y="406" style="fill: #33322E;font-weight:bold;text-anchor: middle;">mischief</text>
  <text x="21.5" y="437" style="fill: #33322E;font-weight:normal;">bawl</text>
  <text x="85.5" y="437" style="fill: #33322E;font-weight:normal;">sing</text>
  <text x="21.5" y="468" style="fill: #33322E;font-weight:normal;">yell</text>
  <text x="85.5" y="468" style="fill: #33322E;font-weight:normal;">drink</text>
  <path d="M13.5 415.5 L13.5 415.5" style="stroke:#33322E;fill:none;stroke-dasharray:none;stroke-width:3;"></path>
  <path d="M13.5 415.5 L141.5 415.5" style="stroke:#33322E;fill:none;stroke-dasharray:none;stroke-width:3;"></path>
  <path d="M13.5 446.5 L141.5 446.5" style="stroke:#33322E;fill:none;stroke-dasharray:none;stroke-width:3;"></path>
  <path d="M77.5 415.5 L77.5 477.5" style="stroke:#33322E;fill:none;stroke-dasharray:none;stroke-width:3;"></path>
  <path d="M141.5 415.5 L141.5 477.5" style="stroke:#33322E;fill:none;stroke-dasharray:none;stroke-width:3;"></path>
  <rect x="44.5" y="108.5" height="236" width="250" style="stroke:#33322E;fill:#eee8d5;stroke-dasharray:none;stroke-width:3;"></rect>
  <text x="169.5" y="130" style="fill: #33322E;font-weight:bold;text-anchor: middle;">Pirate</text>
  <text x="52.5" y="161" style="fill: #33322E;font-weight:normal;">eyeCount: Int</text>
  <text x="52.5" y="192" style="fill: #33322E;font-weight:normal;">raid()</text>
  <text x="52.5" y="207" style="fill: #33322E;font-weight:normal;">pillage()</text>
  <path d="M131.2 260.5 L94 280.5 L94 300.5 L94 300.5 " style="stroke:#33322E;fill:none;stroke-dasharray:6 6;stroke-width:3;"></path>
  <path d="M188.8 260.5 L226 280.5 L226 300.5 L226 300.5 " style="stroke:#33322E;fill:none;stroke-dasharray:none;stroke-width:3;"></path>
  <path d="M220.7 287.2 L226 287.2 L231.3 287.2 L226 300.5 Z" style="stroke:#33322E;fill:#eee8d5;stroke-dasharray:none;stroke-width:3;"></path>
  <rect x="128.5" y="229.5" height="31" width="64" style="stroke:#33322E;fill:#fdf6e3;stroke-dasharray:none;stroke-width:3;"></rect>
  <text x="160.5" y="251" style="fill: #33322E;font-weight:bold;text-anchor: middle;">beard</text>
  <rect x="57.5" y="300.5" height="31" width="73" style="stroke:#33322E;fill:#fdf6e3;stroke-dasharray:none;stroke-width:3;"></rect>
  <text x="94" y="322" style="fill: #33322E;font-weight:bold;text-anchor: middle;">parrot</text>
  <rect x="170.5" y="300.5" height="31" width="111" style="stroke:#33322E;fill:#fdf6e3;stroke-dasharray:none;stroke-width:3;"></rect>
  <text x="226" y="322" style="fill: #33322E;font-weight:bold;text-anchor: middle;">foul mouth</text>
  <path d="M44.5 139.5 L294.5 139.5" style="stroke:#33322E;fill:none;stroke-dasharray:none;stroke-width:3;"></path>
  <path d="M44.5 170.5 L294.5 170.5" style="stroke:#33322E;fill:none;stroke-dasharray:none;stroke-width:3;"></path>
  <path d="M44.5 216.5 L294.5 216.5" style="stroke:#33322E;fill:none;stroke-dasharray:none;stroke-width:3;"></path>
  <rect x="147.5" y="517.5" height="93" width="149" style="stroke:#33322E;fill:#eee8d5;stroke-dasharray:none;stroke-width:3;"></rect>
  <text x="222" y="539" style="fill: #33322E;font-weight:bold;text-anchor: middle;">rum</text>
  <text x="155.5" y="570" style="fill: #33322E;font-weight:normal;">tastiness: Int</text>
  <text x="155.5" y="601" style="fill: #33322E;font-weight:normal;">swig()</text>
  <path d="M147.5 548.5 L296.5 548.5" style="stroke:#33322E;fill:none;stroke-dasharray:none;stroke-width:3;"></path>
  <path d="M147.5 579.5 L296.5 579.5" style="stroke:#33322E;fill:none;stroke-dasharray:none;stroke-width:3;"></path>
  <rect x="81.5" y="25.5" height="31" width="97" style="stroke:#33322E;fill:#eee8d5;stroke-dasharray:none;stroke-width:3;"></rect>
  <text x="130" y="47" style="fill: #33322E;font-weight:normal;font-style:italic;text-anchor: middle;">Marauder</text>
  <rect x="295.5" y="25.5" height="31" width="102" style="stroke:#33322E;fill:#eee8d5;stroke-dasharray:none;stroke-width:3;"></rect>
  <text x="346.5" y="47" style="fill: #33322E;font-weight:bold;text-anchor: middle;">jollyness</text>
  <rect x="221.5" y="415.5" height="31" width="83" style="stroke:#33322E;fill:#eee8d5;stroke-dasharray:none;stroke-width:3;"></rect>
  <text x="263" y="437" style="fill: #33322E;font-weight:bold;text-anchor: middle;">singing</text>
  <circle r="12" cx="676.3" cy="41.5" style="stroke:none; fill:#33322E;"></circle>
  <rect x="594.5" y="211.5" rx="15.5" ry="15.5" height="31" width="83" style="stroke:#33322E;fill:#eee8d5;stroke-dasharray:none;stroke-width:3;"></rect>
  <text x="636" y="233" style="fill: #33322E;font-weight:normal;text-anchor: middle;">plunder</text>
  <path d="M676.3 407.5 L752.5 431 L676.3 454 L599.5 431 Z" style="stroke:#33322E;fill:#eee8d5;stroke-dasharray:none;stroke-width:3;"></path>
  <text x="676" y="436.8" style="fill: #33322E;font-weight:normal;text-anchor: middle;">more loot</text>
  <circle r="10" cx="676.3" cy="564.5" style="stroke:#33322E;fill:#eee8d5;stroke-dasharray:none;stroke-width:3;"></circle>
  <circle r="6" cx="676.3" cy="564.5" style="stroke:none; fill:#33322E;"></circle>
  <circle r="4" cx="490.3" cy="21.5" style="stroke:#33322E;fill:#eee8d5;stroke-dasharray:none;stroke-width:3;"></circle>
  <path d="M490.3 25.5 L490.3 33.5" style="stroke:#33322E;fill:none;stroke-dasharray:none;stroke-width:3;"></path>
  <path d="M486.3 29.5 L494.3 29.5" style="stroke:#33322E;fill:none;stroke-dasharray:none;stroke-width:3;"></path>
  <path d="M486.3 37.5 L490.3 33.5 L494.3 37.5" style="stroke:#33322E;fill:none;stroke-dasharray:none;stroke-width:3;"></path>
  <text x="490" y="59" style="fill: #33322E;font-weight:normal;text-anchor: middle;">Sailor</text>
  <ellipse cx="490.3" cy="226.5" rx="63.75" ry="28.75" style="stroke:#33322E;fill:#eee8d5;stroke-dasharray:none;stroke-width:3;"></ellipse>
  <text x="490.3" y="224.8" style="fill: #33322E;font-weight:normal;text-anchor: middle;">shiver me</text>
  <text x="490.3" y="239.8" style="fill: #33322E;font-weight:normal;text-anchor: middle;">timbers</text>
</svg>